<svg width="45" height="45" viewBox="0 0 45 45" fill="none" xmlns="http://www.w3.org/2000/svg">
<rect width="45" height="45" rx="22.5" fill="white"/>
<path d="M22.6803 26.3901C22.2215 27.1112 21.7813 27.8167 20.7949 28.502C20.2673 28.8719 19.0528 29.5945 17.3266 29.5945C14.0332 29.5945 11.375 27.2001 11.375 22.9906C11.375 19.3115 13.8755 16.4053 17.3968 16.4053C18.8234 16.4053 20.0909 16.8984 21.0244 17.6383C21.8875 18.325 22.2918 19.0119 22.6445 19.6284L20.1798 20.8599C20.0035 20.4556 19.7912 20.0326 19.2464 19.5753C18.6471 19.0993 18.0492 18.9588 17.5373 18.9588C15.5301 18.9588 14.4734 20.8256 14.4734 22.9031C14.4734 25.633 15.8656 26.9879 17.5373 26.9879C19.1575 26.9879 19.8098 25.8609 20.2314 25.1398L22.6803 26.3901V26.3901ZM31.3144 16.7924H34.625L30.3108 29.2246H27.1422L22.881 16.7924H26.1916L28.7623 25.633L31.3144 16.7924Z" fill="black"/>
</svg>
