<svg width="45" height="45" viewBox="0 0 45 45" fill="none" xmlns="http://www.w3.org/2000/svg">
<rect width="45" height="45" rx="22.5" fill="white"/>
<g clip-path="url(#clip0_3552_676)">
<path d="M17.5016 31.7309H13.3153V18.2496H17.5016V31.7309ZM15.406 16.4107C14.0675 16.4107 12.9814 15.3016 12.9814 13.9631C12.9814 13.3201 13.2369 12.7034 13.6916 12.2487C14.1463 11.794 14.7629 11.5386 15.406 11.5386C16.049 11.5386 16.6657 11.794 17.1204 12.2487C17.575 12.7034 17.8305 13.3201 17.8305 13.9631C17.8305 15.3016 16.7444 16.4107 15.406 16.4107ZM33.1694 31.7309H28.9925V25.1684C28.9925 23.6042 28.9608 21.5987 26.8161 21.5987C24.6396 21.5987 24.3057 23.2977 24.3057 25.0559V31.7309H20.1238V18.2496H24.1384V20.0886H24.1968C24.7557 19.0292 26.1209 17.9114 28.1574 17.9114C32.3942 17.9114 33.173 20.7016 33.173 24.3254V31.7309H33.1694Z" fill="black"/>
</g>
<defs>
<clipPath id="clip0_3552_676">
<rect width="23.0769" height="23.0769" fill="white" transform="translate(11.5391 11.5386)"/>
</clipPath>
</defs>
</svg>
