<svg width="67" height="67" viewBox="0 0 67 67" fill="none" xmlns="http://www.w3.org/2000/svg">
<path d="M33.8579 39.1531C32.8508 39.6159 31.7474 40.2189 29.5385 41.4311C28.701 41.9022 27.8258 42.3733 27.0114 42.8172C26.9548 42.7607 26.8962 42.6895 26.8397 42.6309C22.47 37.9618 14.3882 34.6641 14.7315 28.3934C14.8592 26.1091 15.6444 20.1126 30.2525 12.8305C42.2748 6.90521 51.8411 8.54671 53.4931 12.1877C55.8674 17.3781 48.3655 27.0366 35.9496 28.4373C34.5754 28.7161 33.1562 28.6824 31.7968 28.3388C30.4374 27.9953 29.1726 27.3506 28.0959 26.4525C27.4385 25.7385 27.3401 25.6966 27.0972 25.839C26.6973 26.0484 26.9548 26.6953 27.0972 27.0659C27.5708 27.9234 28.2115 28.6772 28.9815 29.2828C29.7514 29.8885 30.635 30.3335 31.5799 30.5918C36.4659 31.6479 41.5602 31.1433 46.1441 29.1492C53.669 26.2368 59.5441 18.1403 57.823 11.3523C56.0956 4.47018 44.6721 2.20055 33.8642 6.04049C27.0957 8.32141 20.8422 11.912 15.4602 16.6076C9.50553 22.177 8.56334 27.0178 8.94859 29.0445C10.3347 36.2407 20.2548 40.9245 24.233 44.3938C24.0236 44.509 23.8477 44.6032 23.6907 44.6932C21.7058 45.6794 14.139 49.6345 12.2525 53.8178C10.1106 58.558 12.5959 61.9562 14.2374 62.4126C16.7111 63.0052 19.3082 62.8104 21.6658 61.8554C24.0235 60.9005 26.0241 59.2331 27.3882 57.0861C28.5467 55.3057 29.258 53.2719 29.4618 51.1577C29.6655 49.0434 29.3557 46.9112 28.5587 44.9424C29.0289 44.5673 29.5305 44.2331 30.0578 43.9436C31.0711 43.3448 32.0364 42.7544 32.8927 42.298C35.8248 40.9246 39.0245 40.2174 42.2622 40.2272C49.0586 41.0271 50.4006 45.2669 50.1431 47.0529C50.0226 47.6865 49.7678 48.287 49.3958 48.8139C49.0239 49.3409 48.5433 49.782 47.9866 50.1076C47.5155 50.4071 47.3584 50.5076 47.4003 50.7211C47.4568 51.0352 47.6851 51.0205 48.085 50.964C49.1061 50.6413 50.0057 50.0172 50.6656 49.1738C51.3255 48.3304 51.7149 47.3071 51.7825 46.2384C51.9919 42.0509 47.9991 37.4572 40.9306 37.4991C38.8141 37.5027 36.7187 37.9202 34.7624 38.7281C34.4484 38.8579 34.1434 38.9975 33.8475 39.1469L33.8579 39.1531ZM23.7556 55.5661C21.4985 58.022 18.3579 58.9496 17.0012 58.1644C15.5355 57.3269 16.1155 53.6942 18.8855 51.0959C20.5261 49.6177 22.2993 48.2938 24.1827 47.1408C24.5114 46.9314 24.9972 46.6551 25.5813 46.3033L25.7384 46.2175L26.0817 46.0081C26.5758 47.6645 26.6207 49.4224 26.212 51.1018C25.8033 52.7813 24.9555 54.3219 23.7556 55.5661Z" fill="black"/>
</svg>
