<svg width="72" height="72" viewBox="0 0 72 72" fill="none" xmlns="http://www.w3.org/2000/svg">
<path d="M60.615 49.176C53.208 59.043 37.392 55.713 27.249 56.19C27.249 56.19 25.452 56.292 23.646 56.589C23.646 56.589 24.33 56.298 25.203 55.995C32.325 53.532 35.691 53.037 40.02 50.814C48.15 46.65 56.244 37.575 57.891 28.149C54.795 37.215 45.381 45.018 36.81 48.186C30.945 50.352 20.334 52.458 20.331 52.458C20.1868 52.3842 20.0438 52.3082 19.902 52.23C12.687 48.72 12.477 33.09 25.584 28.053C31.332 25.845 36.825 27.057 43.038 25.578C49.662 24.003 57.336 19.038 60.453 12.546C63.948 22.92 68.148 39.144 60.615 49.176ZM60.741 9.33597C59.903 11.3452 58.8306 13.2484 57.546 15.006C54.7535 12.1279 51.4115 9.84002 47.7181 8.27803C44.0246 6.71605 40.0551 5.91179 36.045 5.91297C19.476 5.91297 6 19.389 6 35.955C5.99807 40.0872 6.8513 44.1752 8.50603 47.9617C10.1608 51.7482 12.5812 55.1513 15.615 57.957L16.275 58.539C15.7939 58.0571 15.5239 57.4039 15.5244 56.723C15.5248 56.0421 15.7956 55.3893 16.2773 54.908C16.7589 54.4268 17.412 54.1565 18.0929 54.1566C18.7738 54.1568 19.4267 54.4273 19.9082 54.9088C20.3897 55.3902 20.6602 56.0432 20.6604 56.7241C20.6605 57.405 20.3902 58.0581 19.909 58.5397C19.4277 59.0214 18.7748 59.2922 18.0939 59.2926C17.4131 59.293 16.7599 59.023 16.278 58.542L16.725 58.938C22.1262 63.5044 28.9722 66.0068 36.045 66C51.879 66 64.884 53.676 65.997 38.124C66.819 30.507 64.569 20.835 60.741 9.33597Z" fill="black"/>
</svg>
